<?xml version="1.0" standalone="no"?>
<!DOCTYPE svg PUBLIC "-//W3C//DTD SVG 1.1//EN" "http://www.w3.org/Graphics/SVG/1.1/DTD/svg11.dtd" >
<svg xmlns="http://www.w3.org/2000/svg">
<metadata>Generated by IcoMoon</metadata>
<defs>
<font id="Asurion" horiz-adv-x="512">
<font-face units-per-em="512" ascent="480" descent="-32" />
<missing-glyph horiz-adv-x="512" />
<glyph unicode="&#x20;" d="" horiz-adv-x="256" />
<glyph unicode="&#xe000;" d="M0 333.696c0 3.552 0.704 7.104 2.144 10.528 4.416 10.24 14.784 16.928 26.304 16.928h455.104c11.488 0 21.888-6.688 26.272-16.928 1.472-3.392 2.176-6.976 2.176-10.528 0-7.136-2.944-14.112-8.384-19.36l-227.552-219.456c-5.504-5.344-12.768-8.032-20.064-8.032-7.264 0-14.56 2.688-20.096 8.032l-227.552 219.456c-5.472 5.216-8.352 12.224-8.352 19.36z" />
<glyph unicode="&#xe001;" d="M346.368 415.52c4.288-17.376 4.704-18.816 4.352-36.672-0.16-6.912-4.128-38.72-3.072-48.48 0.864-8.032 2.912-8.704 6.048-15.328 5.536-11.552 3.68-27.488 1.568-39.104-1.152-6.368-3.616-15.424-7.328-20.672-4.096-5.728-12.32-5.76-16-12.448-5.216-9.6-2.272-23.136-5.568-33.536-3.744-11.776-13.28-12.64-14.016-28.032 4.672-0.672 9.344-1.344 14.016-1.984 4.672-9.984 13.28-30.016 22.016-36.064 7.36-1.984 14.72-4 22.048-6.016 25.76-10.56 54.336-23.2 80.16-34.080 23.52-9.92 51.648-13.408 60.16-38.080 0-16.672 1.568-56.224 1.12-78.112h-511.776c-0.48 21.92 1.152 61.44 1.152 78.112 8.48 24.672 36.608 28.192 60.096 38.080 25.824 10.912 54.4 23.52 80.16 34.080 7.328 1.984 14.656 4 22.016 6.016 8.768 6.016 17.344 26.080 22.016 36.064l10.496 2.496c-2.368 13.152-10.528 14.208-13.92 23.52-1.344 13.984-2.656 28.032-4 42.048 0.032-0.672-9.6 1.792-10.848 2.56-13.6 8.544-13.888 43.2-15.232 57.568-0.576 6.56 8.576 12 6.016 24.032-14.88 70.72 6.464 103.776 40.224 114.752 23.424 9.536 67.232 27.136 108.064 2.016l10.144-9.408 16.416-2.816c8.192-4.736 13.472-20.512 13.472-20.512z" />
<glyph unicode="&#xe002;" d="M197.44 480v-0.224l-80.064-79.52v-274.272l31.84 36.672v205.92h80.096v79.744h133.44v-285.984l31.872-36.672v354.336h-197.184zM136.352 99.328h89.664v-131.328h59.712v131.328h89.664l-119.552 137.568-119.488-137.568z" />
<glyph unicode="&#xe003;" d="M402.816 144.288l5.76 3.328v-29.504l-5.76-3.36v29.536zM393.056 109.056l5.728 3.328v29.536l-5.824-3.424 0.096-29.44zM435.808 134.048l5.824 3.424v29.536l-5.824-3.424v-29.536zM512 310.944v-197.76l-163.008-95.392-204.8 119.904v197.76l163.296 94.784 204.512-119.296zM277.024 377.824l159.392-94.624 32.48 18.080-161.472 94.176-30.4-17.632zM333.088 208.512l-159.328 92.736v-146.272l159.328-93.088v146.624zM380.192 251.904l-157.376 94.432-33.344-19.328 159.040-92.736 31.68 17.632zM482.144 274.272l-28.672-15.968v-53.6l-0.224-0.096v-0.224l-56.128-31.2v0.192l-0.224-0.096v53.536l-33.92-18.88v-147.2l119.168 69.728v143.808zM416.544 122.816l5.76 3.328v29.536l-5.76-3.36v-29.504zM450.016 142.4l4.8 2.816 0.896 0.544v29.504l-5.728-3.328v-29.536zM426.112 128.448l5.76 3.328v29.504l-5.76-3.328v-29.504zM20.32 300.992h93.344v-29.984h-83.392l-9.952 29.984zM0 251.84h113.696v-29.984h-103.744l-9.952 29.984zM60.032 172.704l-9.952 29.984h63.584v-29.984h-53.632z" />
<glyph unicode="&#xe004;" d="M256 480c-141.376 0-256-114.624-256-256s114.624-256 256-256c141.376 0 256 114.624 256 256s-114.624 256-256 256zM272.928 70.976c-7.584-7.328-18.048-10.752-29.856-10.72-0.096 0-0.192 0-0.288 0-11.232 0-21.344 3.488-28.768 10.72-7.616 7.232-11.424 17.28-11.36 28.448-0.064 11.136 3.744 21.248 11.424 28.32 7.52 7.072 17.696 10.496 28.992 10.432 11.744 0.064 22.176-3.296 29.824-10.432 7.648-7.072 11.456-17.184 11.392-28.32 0.096-11.168-3.712-21.248-11.36-28.448zM341.44 266.752c-3.936-9.92-8.992-18.496-15.104-25.696-5.888-6.912-12.352-13.024-19.456-18.336-6.368-4.8-12.224-9.888-17.504-15.264-5.056-5.248-9.344-11.232-12.928-18.176-3.2-6.048-5.024-14.528-5.024-25.408v-7.136h-59.808l-0.608 6.4c-0.48 5.088-0.736 9.856-0.736 14.464 0 9.152 0.96 17.504 3.008 24.992 2.944 10.752 7.040 20.16 12.384 28.288 5.216 7.84 11.168 14.752 17.952 20.576 6.208 5.376 11.968 10.496 17.312 15.424 5.088 4.672 9.184 9.44 12.448 14.336 2.752 4.128 4.192 9.056 4.256 15.392-0.096 8.48-2.272 14.176-6.272 18.56-3.136 3.552-10.688 6.496-23.712 6.432-3.936 0-8.192-0.416-12.768-1.28-4.64-0.96-9.312-2.24-13.952-3.904-4.736-1.696-9.216-3.68-13.536-5.888-4.352-2.24-8.192-4.512-11.52-6.816l-6.592-4.544-27.456 52.672 5.216 3.552c11.104 7.648 23.84 13.888 38.144 18.784 14.688 5.024 32.064 7.456 52.032 7.456 27.168 0 49.472-6.656 65.856-20.672 16.32-13.888 24.64-33.44 24.576-56.384-0.032-14.784-1.984-27.36-6.208-37.824z" />
<glyph unicode="&#xe005;" d="M499.104 248.832c0 0-10.176 37.216-30.592 35.616 0 0-110.016-6.464-117.856-8.096-7.84-1.6-12.096-1.6-27.264 8.096 0 0-7.328 9.728 14.688 42.080 0 0 26.72 55.040 32.992 85.824 0 0 7.84 31.136-34.56 61.888 0 0-20.448 12.96-32.992 0 0 0-3.168 15.776-6.272-29.536 0 0-3.168-35.616-26.72-66.368 0 0-49.728-45.344-63.872-82.592 0 0-22.176-58.272-59.52-89.824v-201.536c0 0 1.408 15.776 83.136-14.144 0 0 56-22.24 98.4-22.24 0 0 54.208-0.032 82.496 0 28.288 0 36.896 24.48 47.904 43.872 0 0 9.44 27.84 0 40.8 0 0 26.688 11.072 28.288 34.72 0 0 4.672 12.416-6.272 33.472 0 0 14.112 18.848 17.248 49.92 0 0 4.704 9.44-9.408 21.888-0.032 0 17.184 36.736 10.176 56.16zM14.464 218.784c-15.328-135.456 28.864-228.768 28.864-228.768h87.808v228.64c-53.408 6.912-116.672 0.128-116.672 0.128zM89.888 49.856c9.088 0 16.48-7.584 16.48-16.928 0-9.408-7.392-16.96-16.48-16.96-9.088 0-16.448 7.552-16.448 16.96 0 9.312 7.36 16.928 16.448 16.928z" />
<glyph unicode="&#xe006;" d="M0 390.112h298.048v-259.552h-135.392c-10.624 23.296-34.048 39.52-61.28 39.52s-50.656-16.256-61.28-39.52h-40.096v259.552zM446.496 130.592h65.504v110.976l-68.096 75.232h-113.056v-174.432c12.288 16.768 32.064 27.744 54.4 27.744 27.2-0.032 50.624-16.224 61.248-39.52zM470.144 198.784h-98.4v80.832h60.416l38.016-45.12v-35.712zM340.416 102.688c0 0 0 0 0 0 0-24.76 20.072-44.832 44.832-44.832 24.76 0 44.832 20.072 44.832 44.832 0 0 0 0 0 0 0 0 0 0 0 0 0 24.76-20.072 44.832-44.832 44.832-24.76 0-44.832-20.072-44.832-44.832s0 0 0 0zM56.544 102.688c0-24.76 20.072-44.832 44.832-44.832s44.832 20.072 44.832 44.832c0 24.76-20.072 44.832-44.832 44.832-24.76 0-44.832-20.072-44.832-44.832z" />
<glyph unicode="&#xe007;" d="M502.592 243.328l-171.84 145.76c-12.544 10.624-22.784 5.792-22.784-10.784 0 0 0-75.008 0-85.952h-79.072v-136.736h79.072c0-10.944 0-85.952 0-85.952 0-16.576 10.24-21.44 22.784-10.784l171.84 145.76c12.544 10.656 12.544 28.064 0 38.688zM0 262.24v-76.512c0-16.576 13.408-30.112 29.76-30.112h38.016v136.736h-38.016c-16.352 0-29.76-13.536-29.76-30.112zM119.072 155.616h58.528v136.736h-58.528v-136.736z" />
<glyph unicode="&#xe008;" d="M358.848 480h-205.696c-19.68 0-35.616-16.704-35.616-37.312v-437.408c0-20.576 15.936-37.28 35.616-37.28h205.696c19.712 0 35.616 16.704 35.616 37.28v437.408c0 20.608-15.904 37.312-35.616 37.312zM232.736 448.224h46.528v-16.16h-46.528v16.16zM256.032-12.416c-12.544 0-22.72 10.624-22.72 23.744s10.176 23.776 22.72 23.776 22.688-10.656 22.688-23.776-10.144-23.744-22.688-23.744zM367.808 50.112h-223.584v347.776h223.584v-347.776zM231.264 288.864c4.704 7.84 12.672 11.776 23.968 11.776 11.424 0 19.328-3.2 23.648-9.568s6.464-13.408 6.464-21.152c0-6.72-1.952-12.896-5.824-18.496-2.112-3.264-4.96-6.24-8.416-8.992l-10.624-8.736c-10.496-8.544-16.992-16.128-19.52-22.688-2.496-6.56-4.064-18.464-4.64-35.68h39.52c0.128 8.192 0.736 14.176 1.952 18.048 1.792 6.112 5.536 11.424 11.168 16l10.336 8.416c10.464 8.544 17.536 15.584 21.248 21.088 6.272 9.056 9.472 20.224 9.472 33.472 0 21.6-7.328 37.92-21.856 48.896s-32.8 16.512-54.784 16.512c-16.736 0-30.848-3.872-42.336-11.584-18.176-12.128-27.84-32.736-29.024-61.76h42.176c0 8.448 2.368 16.608 7.072 24.448zM235.296 110.208h43.648v44.16h-43.648v-44.16z" />
<glyph unicode="&#xe009;" d="M401.024 363.712v99.936h-289.856v-99.968h-111.168v-263.104h111.168v-116.256h206.144v0.256l83.712 83.552v32.448h110.976v263.136h-110.976zM476.448 328.384v-32.736h-64.448v32.736h64.448zM144.48 430.336h223.232v-66.656h-223.232v66.656zM284 17.664h-139.52v197.472h-33.312v-78.944h-39.744v120.928h370.88v-120.928h-41.28v78.944h-33.312v-113.664h-83.712v-83.808z" />
<glyph unicode="&#xe00a;" d="M504.992 48.512l-126.528 126.624c17.152 29.568 27.136 63.872 27.36 100.512 0.704 112.16-89.536 203.648-201.632 204.352-0.448 0-0.864 0-1.312 0-111.456 0-202.176-90.080-202.88-201.76-0.704-112.16 89.536-203.648 201.6-204.384 0.448 0 0.864 0 1.344 0 37.248 0 72.16 10.112 102.176 27.68l126.4-126.528c9.344-9.344 24.48-9.344 33.824 0l39.648 39.712c9.344 9.312 9.344 24.448 0 33.792zM201.952 125.664c-83.36 0.512-150.752 68.832-150.208 152.224 0.512 82.88 68.32 150.304 151.136 150.304h0.992c40.384-0.256 78.24-16.224 106.592-44.96 28.384-28.736 43.872-66.848 43.616-107.296-0.288-40.224-16.128-78.016-44.64-106.336-28.544-28.384-66.368-43.968-106.528-43.968h-0.96z" />
<glyph unicode="&#xe00b;" d="M240.032 45.12c5.216-2.176 8.576-7.552 8.384-13.504-0.224-5.888-3.936-11.008-9.28-12.768l-53.056-17.6c-10.368-3.424-21.632 0.544-27.936 9.856l-56.128 83.104 78.24 25.984 35.168-54.496c5.92-9.184 14.304-16.256 24.064-20.352l0.544-0.224zM125.472 301.024l-71.008-23.584c-40.992-13.568-63.776-59.552-50.848-102.72 12.928-43.136 56.608-67.104 97.568-53.504l71.040 23.52-46.752 156.288zM151.2 309.632l46.784-156.416c50.496 9.312 118.88 10.688 210.336-14.016l-92.32 308.8c-63.2-77.44-118.88-115.808-164.8-138.368zM376.8 360.224c17.984-9.824 32.416-26.88 38.976-48.832 6.592-21.952 4.096-44.64-5.248-63.552l29.536-16.224c13.312 26.88 16.864 59.136 7.488 90.336-9.312 31.2-29.792 55.424-55.328 69.408l-15.424-31.136zM403.776 414.72c31.232-17.12 56.224-46.72 67.648-84.832s7.072-77.536-9.184-110.432l30.304-16.608c20.256 41.024 25.728 90.272 11.424 137.856-14.24 47.584-45.44 84.576-84.448 105.952l-15.744-31.936z" />
<glyph unicode="&#xe00c;" d="M0 430.208v-412.448h512v412.448h-512zM469.344 60.48h-426.688v327.072h426.656v-327.072zM352.896 132.704c0 0-0.192 16-32.96 30.592-15.872 7.040-39.424 25.216-74.368 31.456 8.928 9.568 15.712 24.512 22.656 42.208 4.032 10.304 3.296 19.040 3.296 31.488 0 9.216 1.792 23.936-0.544 32.064-7.648 27.392-27.136 34.912-49.92 34.912-22.816 0-42.272-7.584-49.984-35.008-2.24-8.128-0.512-22.848-0.512-32 0-12.48-0.672-21.248 3.36-31.52 7.008-17.792 13.664-32.704 22.56-42.24-34.624-6.304-58.016-24.384-73.824-31.392-32.672-14.56-32.832-30.528-32.832-30.528v-27.104l263.072 0.064v27.008zM308.928 327.456h106.464v-21.056h-106.464zM308.928 277.6h62.88v-21.024h-62.88zM308.928 228.192h88.864v-21.024h-88.864z" />
<glyph unicode="&#xe00d;" d="M177.92 480v-0.32l-106.816-106.976v-404.704h369.824v512h-263.008zM398.4 10.656h-284.8v319.392h106.816v107.296h177.984v-426.688zM205.6 230.432h161.184v35.552h-161.184v-35.552zM205.6 154.88h161.184v35.52h-161.184v-35.52zM205.6 78.88h161.184v35.52h-161.184v-35.52zM163.84 265.984c-9.792 0-17.696-7.968-17.696-17.76s7.904-17.728 17.696-17.728c9.76 0 17.664 7.968 17.664 17.76s-7.904 17.728-17.664 17.728zM163.84 190.496c-9.792 0-17.696-7.936-17.696-17.76s7.904-17.76 17.696-17.76c9.76 0 17.664 7.936 17.664 17.76s-7.904 17.76-17.664 17.76zM163.84 114.656c-9.792 0-17.696-7.936-17.696-17.728 0-9.824 7.904-17.76 17.696-17.76 9.76 0 17.664 7.936 17.664 17.76 0 9.792-7.904 17.728-17.664 17.728z" />
<glyph unicode="&#xe00e;" d="M363.68 480h-215.392c-20.608 0-37.28-16.736-37.28-37.312v-437.408c0-20.608 16.672-37.28 37.28-37.28h215.392c20.64 0 37.312 16.672 37.312 37.28v437.408c0 20.576-16.672 37.312-37.312 37.312zM231.616 448.224h48.736v-16.192h-48.736v16.192zM256.032-12.448c-13.12 0-23.776 10.624-23.776 23.776 0 13.12 10.656 23.744 23.776 23.744 13.088 0 23.744-10.624 23.744-23.744 0-13.152-10.656-23.776-23.744-23.776zM373.088 50.080h-234.112v347.808h234.112v-347.808z" />
<glyph unicode="&#xe00f;" d="M432.704 426.656l-246.656-246.784-106.816 106.944-79.232-79.296 186.080-186.176 325.92 326.048-79.296 79.264z" />
<glyph unicode="&#xe010;" d="M242.336 430.304c89.056 0 53.664-115.2 53.664-115.2s119.36 29.44 119.36-58.176c0-39.456 0-239.232 0-239.232h-318.752v412.608c147.712 0 105.728 0 145.728 0zM323.008 453.952c-16.704 16.704-39.296 26.048-62.976 26.048h-213.376v-512h418.656v306.88c0 23.328-9.248 45.696-25.76 62.24l-116.544 116.832zM321.376 255.904l-91.232-90.784-39.488 39.328-29.312-29.184 68.8-68.512 120.544 120-29.312 29.152z" />
<glyph unicode="&#xe011;" d="M259.936 439.52c-141.344 2.72-257.728-82.528-259.904-190.4-0.768-37.504 12.384-72.832 35.808-103.040v0c40.256-50.624-3.68-137.696-3.68-137.696l129.76 54.688c27.968-8.64 58.304-13.696 90.144-14.24 141.344-2.752 257.728 82.528 259.904 190.4 2.144 107.904-110.688 197.568-252.032 200.288z" />
<glyph unicode="&#xe012;" d="M357.824 110.496h-52.64v-52.576h52.64v52.576zM283.648 251.296h-52.576v-52.608h52.608v52.608zM357.824 180.864h-52.64v-52.576h52.64v52.576zM431.872 251.296h-52.608v-52.608h52.608v52.608zM283.648 180.864h-52.576v-52.576h52.608v52.576zM357.824 251.296h-52.64v-52.608h52.64v52.608zM431.872 180.864h-52.608v-52.576h52.608v52.576zM135.424 110.496h-52.576v-52.576h52.608v52.576zM135.424 180.864h-52.576v-52.576h52.608v52.576zM418.336 436.736v-23.104c9.056-8.032 14.848-19.744 14.848-32.8 0-24.192-19.616-43.808-43.84-43.808-24.192 0-43.808 19.616-43.808 43.808 0 13.088 5.76 24.768 14.816 32.8v23.104h-204.736v-23.104c9.056-8 14.816-19.712 14.816-32.768 0-24.192-19.584-43.808-43.808-43.808-24.192 0-43.808 19.616-43.808 43.808 0 13.088 5.76 24.768 14.848 32.8v23.072h-97.664v-466.24h512v466.24h-93.664zM465.248 17.248h-418.464v291.296h418.464v-291.296zM209.6 251.296h-52.64v-52.608h52.64v52.608zM209.6 110.496h-52.64v-52.576h52.64v52.576zM283.648 110.496h-52.576v-52.576h52.608v52.576zM209.6 180.864h-52.64v-52.576h52.64v52.576zM126.624 355.328c12.064 0 21.824 9.76 21.824 21.824v78.56c0 12.032-9.76 21.824-21.824 21.824-12.032 0-21.824-9.76-21.824-21.824v-78.56c0-12.064 9.792-21.824 21.824-21.824zM389.344 355.328c12.032 0 21.824 9.76 21.824 21.824v78.56c0 12.032-9.792 21.824-21.824 21.824s-21.824-9.76-21.824-21.824v-78.56c0-12.064 9.792-21.824 21.824-21.824z" />
<glyph unicode="&#xe013;" d="M507.331 68.67c-0.002 0.002-0.004 0.004-0.006 0.005l-155.322 155.325 155.322 155.325c0.002 0.002 0.004 0.003 0.006 0.005 1.672 1.673 2.881 3.627 3.656 5.708 2.123 5.688 0.912 12.341-3.662 16.915l-73.373 73.373c-4.574 4.573-11.225 5.783-16.914 3.66-2.080-0.775-4.035-1.984-5.709-3.655 0-0.002-0.002-0.003-0.004-0.005l-155.324-155.326-155.324 155.325c-0.002 0.002-0.003 0.003-0.005 0.005-1.673 1.671-3.627 2.88-5.707 3.655-5.69 2.124-12.341 0.913-16.915-3.66l-73.374-73.374c-4.574-4.574-5.784-11.226-3.661-16.914 0.776-2.080 1.985-4.036 3.656-5.708 0.002-0.001 0.003-0.003 0.005-0.005l155.325-155.324-155.325-155.326c-0.001-0.002-0.003-0.003-0.004-0.005-1.671-1.673-2.88-3.627-3.657-5.707-2.124-5.688-0.913-12.341 3.661-16.915l73.374-73.373c4.575-4.574 11.226-5.784 16.915-3.661 2.080 0.776 4.035 1.985 5.708 3.656 0.001 0.002 0.003 0.003 0.005 0.005l155.324 155.325 155.324-155.325c0.002-0.001 0.004-0.003 0.006-0.004 1.674-1.672 3.627-2.881 5.707-3.657 5.689-2.123 12.342-0.913 16.914 3.661l73.373 73.374c4.574 4.574 5.785 11.227 3.662 16.915-0.776 2.080-1.985 4.034-3.657 5.707z" />
<glyph unicode="&#xe014;" d="M496 288h-176v176c0 8.836-7.164 16-16 16h-96c-8.836 0-16-7.164-16-16v-176h-176c-8.836 0-16-7.164-16-16v-96c0-8.836 7.164-16 16-16h176v-176c0-8.836 7.164-16 16-16h96c8.836 0 16 7.164 16 16v176h176c8.836 0 16 7.164 16 16v96c0 8.836-7.164 16-16 16z" />
<glyph unicode="&#xe015;" d="M365.696 480c3.552 0.032 7.136-0.672 10.528-2.144 10.24-4.416 16.928-14.784 16.928-26.272v-455.136c0-11.488-6.688-21.888-16.928-26.24-3.424-1.536-6.976-2.208-10.528-2.208-7.136 0-14.112 2.944-19.36 8.384l-219.424 227.52c-5.376 5.568-8.064 12.8-8.064 20.096 0 7.264 2.688 14.528 8.032 20.096l219.424 227.552c5.248 5.472 12.256 8.352 19.392 8.352z" />
<glyph unicode="&#xe016;" d="M165.696 471.648l219.424-227.552c5.344-5.568 8.032-12.832 8.032-20.096 0-7.296-2.688-14.528-8.032-20.096l-219.424-227.52c-5.248-5.44-12.256-8.384-19.392-8.384-3.552 0-7.136 0.672-10.528 2.176-10.24 4.384-16.928 14.752-16.928 26.24v455.136c0 11.488 6.688 21.888 16.928 26.272 3.424 1.504 6.976 2.208 10.528 2.176 7.136 0 14.144-2.88 19.392-8.352z" />
<glyph unicode="&#xe017;" d="M8.32 133.696l227.552 219.424c5.568 5.344 12.832 8.032 20.128 8.032s14.56-2.688 20.096-8.032l227.52-219.424c5.44-5.248 8.384-12.256 8.384-19.392 0-3.552-0.672-7.136-2.176-10.528-4.384-10.24-14.752-16.928-26.24-16.928h-455.136c-11.488 0-21.888 6.688-26.304 16.928-1.472 3.424-2.176 6.976-2.144 10.528 0 7.136 2.88 14.144 8.32 19.392z" />
<glyph unicode="&#xe018;" d="M706.208 344.288v-104.352c-0.512-34.464-0.992-50.176-9.824-66.432-7.872-12.8-23.168-26.112-47.776-26.112-21.632 0-39.36 9.376-45.76 31.008-1.984 6.368-1.984 14.816-1.984 24.672v107.648c-0.704 17.504-14.176 31.776-31.36 33.568h-28.16v-142.272c0-36.896 0-60.032 16.736-81.216 8.832-11.328 28.032-28.576 68.448-28.576 45.28 0 69.376 21.184 79.744 31.008v-0.192h0.256c0-13.504 10.656-24.448 24-24.864h34.816v246.112h-59.136zM1076.608 417.216c0-19.104-15.424-34.592-34.56-34.592s-34.592 15.456-34.592 34.592 15.456 34.592 34.592 34.592 34.56-15.488 34.56-34.592zM170.848 117.312v0c0 0.064 0.032 0.064 0.064 0.064 0-0.672 0.032-1.568 0.096-2.688 1.184-8.672 8.096-15.488 16.864-16.576h54.4c-10.816 14.752-10.816 21.184-10.816 39.936v130.432c0 26.592-0.512 49.728-29.568 67.456-21.6 12.8-50.144 15.744-73.792 15.744-15.744 0-74.368 0-97.952-42.848-4.416-8-6.72-14.816-7.968-21.408l58.752-12.064c0.352 4.704 1.568 9.504 5.792 14.784 5.92 7.904 19.2 15.744 43.84 15.744 25.28 0 35.296-9.6 39.232-19.872 3.84-14.24-2.496-18.496-13.504-22.464-11.872-3.36-24.352-5.984-60.192-13.312-23.616-4.384-61.536-12.288-79.264-47.744-4.896-9.824-7.872-21.12-7.872-33.504 0-42.304 33.472-76.736 89.088-76.736 33.888 0 59.968 14.176 72.8 25.056v0zM111.36 142.944c-23.648 0-39.904 9.888-39.904 29.056 0 26.080 28.064 31.040 49.248 33.952 26.592 4.48 39.872 8.896 51.68 14.784v-27.072c0-7.392 0-14.784-3.456-22.144-6.336-14.784-27.552-28.576-57.568-28.576zM1246.624 351.68c-73.376 0-125.568-54.176-125.568-129.472 0-75.328 51.2-131.456 128-131.456 74.336 0 125.056 54.624 125.056 131.456-0.48 81.728-59.072 129.472-127.488 129.472zM1249.056 144.928c-35.424 0-66.464 28.064-66.464 78.752 0 45.28 26.592 74.816 63.488 74.816 41.376 0 65.024-34.464 65.984-75.328 1.504-40.864-20.16-78.24-63.008-78.24zM474.56 218.336c-14.592 13.632-28.608 17.344-78.784 31.136-30.912 8.16-48.64 14.624-47.072 32.288 1.088 12.736 14.912 23.872 42.848 21.44 24.608-2.144 39.904-11.36 49.536-21.408l37.856 36.064c-0.64 0.512-1.28 1.088-1.952 1.6-15.616 13.216-41.568 27.36-78.848 30.624-67.168 5.92-108.32-29.056-111.968-70.688-1.92-22.080 6.176-53.984 63.328-72.832 8.608-3.232 48.16-14.080 56.352-16.8 7.712-2.112 25.344-7.808 23.968-23.488-1.088-12.32-17.568-27.424-51.424-24.512-27.904 2.432-47.008 13.248-60.192 27.872l-43.104-33.184c26.656-28.256 65.696-43.2 102.208-46.368 76.032-6.688 114.336 35.872 117.728 74.112 1.792 20.544-6.304 41.024-20.48 54.144zM886.4 309.344v7.68c-1.024 14.848-13.024 26.656-27.968 27.264h-29.152v-246.176h57.12v91.136c0 40.8 0.48 65.952 25.6 85.152 18.208 13.76 40.352 14.272 53.152 14.784v60.512c-55.136 1.504-71.36-27.584-78.752-40.352zM1040.832 344.288c-15.584-0.64-28.032-13.44-28.032-29.216v0-216.896h58.624v246.112h-30.592zM1621.728 322.144c-12.288 16.736-36.448 29.536-64.512 29.536-19.168 0-41.824-6.4-56.608-17.248-10.304-6.88-16.224-14.784-19.2-19.2v0l-0.032-0.192h-0.448c0 15.776-12.512 28.576-28.064 29.216h-31.008v-246.112h59.552v106.848c0 18.208 0 43.328 9.344 61.536 8.384 16.256 26.112 27.584 45.312 27.584s34.976-11.328 40.416-33.024c1.92-6.88 1.92-19.168 1.92-37.376v-101.12c0.32-13.248 10.816-23.936 24-24.384h34.592v144.64c-0.032 32.032-0.032 58.592-15.264 79.296zM1774.656 62.048c-10.080 13.312-18.944 27.68-26.336 42.624l-0.352 0.736 0.384 0.672c31.36 55.136 41.344 101.12 35.52 163.84-2.944 31.68-11.040 62.368-24.128 91.232l-0.672 1.408 0.384 0.672c9.056 14.88 19.552 28.928 31.296 41.728l1.984 2.24 0.544-2.976c1.6-8.352 4.192-16.576 7.712-24.384 15.2-33.44 24.64-68.992 28-105.76 6.752-72.48-6.4-130.88-43.936-195.2-3.168-5.312-5.792-10.816-7.84-16.448l-0.96-2.56-1.6 2.176zM1951.904-24.192c-9.536 0-19.2 0.512-28.704 1.568l-2.688 0.32 1.696 2.112c2.336 2.88 4.576 6.016 6.592 9.184 19.52 30.432 39.744 50.368 70.304 76.64 53.44 45.824 117.632 76.384 185.696 88.384l0.736 0.128c6.336 0.928 12.672 2.496 18.72 4.64l2.912 0.992-1.024-2.976c-5.856-16.8-13.472-33.248-22.624-48.736l-0.352-0.576-0.64-0.128c-56.288-11.744-109.568-38.048-153.984-76.192-22.624-19.36-38.496-34.368-52.736-53.76l-0.416-0.576-0.64-0.064c-7.68-0.64-15.424-0.96-22.848-0.96zM2194.56 322.016c-1.344 0.288-2.656 0.512-4 0.704-87.616 14.080-169.6 61.152-230.88 132.576-3.52 4.064-7.232 8.576-10.976 13.344l-2.176 2.752 3.072 0.288c1.984 0 4.288 0.064 6.496 0.064 18.336 0 36.768-1.952 54.944-5.696l0.48-0.096 0.32-0.32c42.688-43.232 94.592-74.4 150.080-90.176l0.448-0.128 0.288-0.352c13.152-15.648 24.416-32.768 33.536-50.816l1.408-2.752-3.040 0.608zM1840.032-21.248c-4.64 0-9.28 1.184-13.344 3.552l-1.536 1.056c-0.48 0.32-0.8 0.576-1.12 0.8-11.296 8.384-14.208 24-6.72 35.68 1.088 1.76 2.208 3.424 3.328 5.12l1.28 1.952 0.16 0.384c48.064 85.376 64.768 163.616 55.744 261.312-4.704 50.72-17.728 99.904-38.72 146.112-6.016 13.312-0.128 29.024 13.184 35.040 3.456 1.6 7.104 2.4 10.88 2.4 4.544 0 8.992-1.184 13.024-3.424l0.448-0.256c0.448-0.288 0.864-0.544 1.312-0.864 0.48-0.256 0.768-0.48 1.088-0.704l0.512-0.384c1.984-1.536 3.552-3.008 4.864-4.704 4.832-6.144 9.76-12.096 14.56-17.696 81.664-95.264 191.68-158.144 309.76-177.088l1.184-0.224c0.864-0.192 1.696-0.384 2.464-0.672 10.976-3.424 18.656-13.792 18.656-25.248 0-0.864-0.032-1.632-0.096-2.336l-0.224-1.824-0.192-1.024c-0.16-0.672-0.32-1.344-0.48-1.984l-0.16-0.416c-0.128-0.64-0.384-1.216-0.576-1.824-0.416-1.024-0.672-1.6-0.96-2.176l-0.16-0.32c-0.288-0.608-0.608-1.184-0.896-1.696l-0.256-0.416c-0.352-0.576-0.672-1.056-0.96-1.504l-0.416-0.512c-0.32-0.416-0.672-0.832-0.992-1.28-0.128-0.128-1.216-1.312-1.504-1.6-0.128-0.128-1.376-1.248-1.696-1.504-0.416-0.352-0.768-0.608-1.152-0.864l-0.384-0.32c-0.736-0.544-1.184-0.8-1.664-1.088l-0.48-0.256c-0.576-0.352-1.088-0.64-1.728-0.928l-0.384-0.16c-0.512-0.256-1.152-0.512-1.792-0.768-0.896-0.352-1.536-0.576-2.208-0.736-0.864-0.224-1.568-0.384-2.176-0.512l-1.28-0.224c-92.32-15.84-179.264-56.864-251.328-118.688-36.16-31.072-63.776-57.984-89.696-96.576l-0.384-0.512-1.728-3.2c-0.704-1.248-1.408-2.56-2.176-3.872-4.704-8.032-13.472-13.024-22.88-13.024zM1928.576 311.68c0.896-7.232 1.568-12.96 2.048-18.144 4.064-43.936 3.232-84.384-2.656-123.712l-4.736-31.872 25.632 19.488c37.76 28.736 78.656 52.672 121.664 71.2l27.84 12-27.84 12.064c-42.656 18.432-83.392 42.336-120.992 71.104l-24.992 19.104 4.032-31.232z" horiz-adv-x="2224" />
<glyph unicode="&#xe600;" d="M150.4 156.8v211.2h76.8v80h134.4v-291.2h32v323.2h-195.2l-80-80v-243.2h12.8zM377.6 124.8h-92.8v134.4h-60.8v-134.4h-92.8l124.8-144z" />
<glyph unicode="&#xe601;" d="M25.6 432h460.8v-80h-460.8v80zM25.6 265.6h460.8v-80h-460.8v80zM25.6 92.8h460.8v-80h-460.8v80z" />
<glyph unicode="&#xe602;" d="M448-32h-149.333v138.667h-85.334v-138.667h-149.333v224c0 5.888 4.768 10.666 10.666 10.666s10.666-4.779 10.666-10.666v-202.667h106.666v138.667h128v-138.667h106.666v192c0 5.888 4.768 10.666 10.666 10.666s10.666-4.779 10.666-10.666v-213.333zM501.334 192c-2.656 0-5.301 0.981-7.37 2.954l-237.963 227.616-237.963-227.616c-4.256-4.064-11.008-3.925-15.082 0.33-4.074 4.256-3.914 11.008 0.33 15.082l252.715 241.728 252.704-241.718c4.246-4.075 4.406-10.827 0.33-15.082-2.091-2.187-4.885-3.296-7.702-3.296zM416 320c-5.899 0-10.666 4.779-10.666 10.666v64h-64c-5.899 0-10.666 4.779-10.666 10.666s4.768 10.667 10.666 10.667h85.334v-85.334c0-5.888-4.768-10.666-10.666-10.666z" />
<glyph unicode="&#x10ffff;" d="M181.664 264.608h-61.248v77.888c0 75.808 60.8 137.504 135.584 137.504s135.584-61.696 135.584-137.504v-77.888h-61.248v77.888c0 41.568-33.376 75.36-74.336 75.36-40.992 0-74.336-33.824-74.336-75.36v-77.888zM437.344 227.328v-259.328h-362.688v259.328h362.688zM341.792 137.792l-25.44 25.76-79.104-80.256-34.24 34.784-25.44-25.792 59.68-60.544 104.544 106.048z" />
</font>
</defs>
</svg>
